<?xml version="1.0" standalone="no"?>
<!DOCTYPE svg PUBLIC "-//W3C//DTD SVG 20010904//EN"
 "http://www.w3.org/TR/2001/REC-SVG-20010904/DTD/svg10.dtd">
<svg version="1.0" xmlns="http://www.w3.org/2000/svg"
 width="562.000000pt" height="562.000000pt" viewBox="0 0 562.000000 562.000000"
 preserveAspectRatio="xMidYMid meet">
<metadata>
Created by potrace 1.14, written by Peter Selinger 2001-2017
</metadata>
<g transform="translate(0.000000,562.000000) scale(0.100000,-0.100000)"
fill="#000000" stroke="none">
<path d="M2810 5542 c0 -4 -17 -8 -37 -9 -85 -2 -236 -13 -240 -17 -3 -3 -15
-1 -28 4 -13 5 -26 6 -29 2 -4 -3 -21 -7 -39 -8 -18 -1 -43 -5 -57 -9 -14 -3
-32 -8 -40 -9 -32 -7 -60 -19 -60 -26 0 -4 -13 -13 -30 -20 -16 -7 -30 -17
-30 -22 0 -5 -4 -6 -10 -3 -5 3 -10 2 -10 -4 0 -5 -8 -12 -17 -15 -10 -4 -34
-21 -54 -39 -20 -17 -47 -39 -59 -47 -12 -8 -28 -20 -35 -27 -7 -7 -14 -10
-17 -8 -3 4 -30 -36 -129 -193 -21 -35 -41 -73 -43 -85 -3 -12 -5 -24 -6 -27
-2 -3 -2 -8 -1 -12 0 -5 -2 -8 -7 -8 -4 0 -8 -17 -9 -38 -1 -34 -9 -77 -13
-77 -2 0 -4 -16 -5 -36 -1 -20 -5 -41 -9 -47 -3 -6 0 -12 6 -15 10 -3 10 -7
-1 -20 -11 -14 -11 -17 0 -17 9 0 10 -3 3 -8 -8 -6 -12 -167 -4 -167 3 0 5
-17 15 -105 9 -87 12 -105 15 -105 1 0 3 -25 5 -55 2 -30 4 -55 5 -55 1 0 3
-18 4 -40 2 -22 4 -41 6 -42 1 -2 3 -15 4 -30 1 -16 5 -37 8 -48 13 -40 17
-91 8 -105 -6 -8 -10 -10 -10 -3 0 13 -52 33 -85 33 -45 0 -54 -31 -41 -145 8
-67 8 -68 24 -145 6 -30 15 -88 22 -129 10 -68 30 -125 62 -176 19 -29 69 -75
85 -76 37 -4 70 -18 71 -32 1 -6 3 -25 5 -42 3 -16 8 -59 12 -95 4 -36 11 -70
16 -76 5 -6 6 -13 4 -16 -12 -12 41 -128 95 -208 l57 -85 -25 -40 c-14 -22
-28 -42 -32 -45 -4 -3 -13 -16 -20 -29 -18 -35 -27 -46 -148 -179 -65 -72 -85
-87 -185 -138 -62 -31 -143 -76 -182 -99 -78 -47 -283 -158 -295 -160 -3 0
-16 -7 -30 -15 -68 -37 -380 -190 -389 -190 -6 0 -11 -4 -11 -8 0 -5 -17 -14
-39 -20 -21 -7 -44 -19 -51 -27 -7 -8 -16 -15 -21 -15 -4 0 -38 -14 -76 -32
-37 -18 -72 -32 -78 -33 -7 0 -11 -296 -13 -862 l-2 -863 2220 0 2220 0 0 825
0 825 -25 12 c-14 6 -25 14 -25 18 0 3 -16 12 -35 20 -19 8 -35 17 -35 22 0 4
-5 8 -10 8 -6 0 -35 15 -65 34 -29 19 -56 32 -59 29 -3 -4 -6 -1 -6 5 0 7 -5
12 -10 12 -6 0 -37 17 -68 37 -31 21 -70 44 -87 52 -16 8 -32 18 -35 21 -9 11
-110 70 -119 70 -5 0 -14 6 -20 14 -6 8 -42 30 -79 49 -113 59 -137 72 -142
79 -3 4 -35 22 -70 40 -36 17 -68 36 -72 42 -4 6 -8 7 -8 3 0 -4 -21 7 -47 25
-27 18 -50 32 -53 32 -3 0 -15 10 -28 21 -13 11 -27 20 -30 20 -22 0 -89 68
-129 131 -25 41 -50 74 -55 74 -4 0 -8 6 -8 14 0 8 -3 16 -7 18 -5 2 -34 31
-67 65 -55 58 -58 63 -57 109 0 27 1 70 1 96 0 35 10 70 39 130 51 107 66 162
88 323 6 51 18 62 71 69 47 6 125 54 143 89 7 12 15 24 19 27 3 3 16 30 28 60
32 84 35 94 33 103 -1 4 4 36 10 70 6 34 11 68 11 75 1 6 5 12 10 12 4 0 7 3
6 8 -1 4 4 35 11 69 7 34 11 69 8 77 -4 9 -2 18 4 22 6 4 5 11 -3 21 -7 9 -12
18 -10 20 1 2 -1 10 -5 17 -10 16 -83 39 -83 25 0 -5 -3 -8 -7 -7 -7 2 -90
-34 -116 -49 -5 -3 -6 10 -4 28 3 19 6 34 7 34 3 0 10 40 13 76 2 19 6 40 9
45 3 5 5 38 3 74 -1 36 0 69 3 74 8 13 11 46 16 141 4 61 9 82 22 92 10 7 13
13 6 13 -7 0 -10 19 -9 55 2 30 0 55 -3 55 -3 0 -7 12 -8 28 -4 40 -7 56 -14
67 -3 6 -9 26 -13 45 -4 19 -12 44 -18 55 -6 11 -12 22 -12 25 -3 17 -39 80
-46 80 -5 0 -8 3 -7 8 2 13 -15 47 -34 63 -10 9 -18 20 -18 23 0 4 -18 25 -40
47 -22 22 -40 44 -40 49 0 6 -6 10 -12 10 -7 0 -34 19 -60 43 -62 56 -87 77
-94 77 -3 0 -17 9 -31 20 -14 11 -29 17 -34 14 -5 -3 -9 0 -9 5 0 6 -3 11 -7
10 -16 -2 -53 14 -53 23 0 5 -4 6 -10 3 -5 -3 -10 -2 -10 4 0 9 -40 27 -49 22
-2 -2 -7 1 -10 6 -8 11 -167 92 -189 97 -9 1 -24 6 -32 9 -19 7 -67 18 -105
24 -16 2 -45 8 -62 13 -20 5 -33 5 -33 -1 0 -6 -8 -5 -20 1 -11 6 -20 7 -20 2z"/>
</g>
</svg>
